<svg version="1.2" xmlns="http://www.w3.org/2000/svg" viewBox="0 0 131 40" width="131" height="40">
	<title>movix-logo-svg</title>
	<defs>
		<linearGradient id="g1" x2="1" gradientUnits="userSpaceOnUse" gradientTransform="matrix(29.439,-10.121,10.121,29.439,4.668,24.11)">
			<stop offset="0" stop-color="#f89e00"/>
			<stop offset="1" stop-color="#da2f68"/>
		</linearGradient>
		<linearGradient id="g2" x2="1" gradientUnits="userSpaceOnUse" gradientTransform="matrix(88.957,-2.293,.641,24.885,35.496,26.22)">
			<stop offset="0" stop-color="#f89e00"/>
			<stop offset="1" stop-color="#da2f68"/>
		</linearGradient>
	</defs>
	<style>
		.s0 { fill: url(#g1) } 
		.s1 { fill: #ffffff } 
		.s2 { fill: url(#g2) } 
	</style>
	<path id="Layer" class="s0" d="m17.5 33c-7.5 0-13.5-6-13.5-13.5 0-7.5 6-13.5 13.5-13.5 7.5 0 13.5 6 13.5 13.5 0 7.5-6 13.5-13.5 13.5z"/>
	<path id="Layer" fill-rule="evenodd" class="s1" d="m10.4 15.1q6.3-1.5 12.6-3.1 0.3 1.3 0.6 2.5-4.9 1.3-9.8 2.5 0 0 0 0h10.1q0 0.1 0 0.1 0 3.3 0 6.6c0 1.2-1 2.2-2.2 2.3q-0.2 0-0.4 0-3.9 0-7.9 0-1 0-1.7-0.7-0.6-0.6-0.7-1.5 0-0.2 0-0.3 0-2.9 0-5.9 0-0.3-0.1-0.5-0.2-1-0.5-1.9 0 0 0-0.1zm1.2 4.5v0.1q0 2 0 4 0 0.1 0 0.2c0.2 0.9 0.9 1.5 1.8 1.5q4 0 8 0 0.1 0 0.2 0c1-0.1 1.7-0.8 1.7-1.8q0-1.9 0-3.9v-0.1zm1.9-2q0 0 0 0.1 0.5 0.6 0.9 1.3 0.1 0 0.2 0 0.5 0 1 0 0.1 0 0.1 0 0 0 0 0-0.5-0.7-0.9-1.3-0.1-0.1-0.1-0.1-0.3 0-0.6 0-0.3 0-0.6 0zm5.1 1.4q0 0 0-0.1-0.5-0.6-0.9-1.2-0.1-0.1-0.2-0.1-0.5 0-1 0-0.1 0-0.1 0 0 0 0 0.1 0.4 0.5 0.8 1.1c0.1 0.2 0.2 0.2 0.4 0.2q0.5 0 1 0zm0.7-1.4q0 0 0 0.1 0.5 0.6 0.9 1.3 0 0 0.1 0 0.6 0 1.1 0 0 0 0.1 0 0 0 0 0-0.5-0.7-1-1.3 0-0.1-0.1-0.1-0.3 0-0.6 0-0.3 0-0.5 0zm1.8-3.1q0 0 0 0-0.6-0.5-1.3-1.1 0 0-0.1 0-0.5 0.2-1.1 0.3 0 0 0 0 0 0.1 0 0.1 0.6 0.4 1.1 0.9c0.1 0.1 0.3 0.1 0.4 0.1q0.5-0.1 1-0.3zm-5.6 1.4q0 0 0 0-0.6-0.5-1.2-1-0.1-0.1-0.2-0.1-0.4 0.2-0.9 0.3-0.1 0-0.2 0 0.1 0.1 0.3 0.3 0.4 0.4 0.9 0.8 0.1 0 0.2 0 0.5-0.1 1.1-0.3zm0.3-1.5q0 0 0 0 0 0 0 0zm0 0q0.6 0.6 1.3 1.1 0 0 0.1 0 0.5-0.1 1-0.2 0.1 0 0.1-0.1-0.6-0.5-1.2-1-0.1-0.1-0.2 0-0.2 0-0.3 0-0.4 0.1-0.8 0.2 0 0 0 0zm-3 4.6q0 0 0 0-0.5-0.7-0.9-1.4-0.1 0-0.1 0-0.1 0-0.2 0v1.4zm-1.3-2.1q0.6-0.1 1.2-0.3 0 0 0 0-0.6-0.5-1.2-1c-0.1-0.1-0.2-0.1-0.3 0q0.2 0.7 0.3 1.3zm10.6 0.7q0.5 0.7 0.9 1.3 0.1 0.2 0.3 0.1v-1.4h-1.2zm0.4-4.9q0 0 0 0 0 0 0 0zm-1.1 0.3q0 0.1 0 0.1 0.6 0.5 1.2 0.9c0.1 0.1 0.1 0.2 0.3 0.1q-0.2-0.7-0.4-1.4-0.6 0.2-1.1 0.3z"/>
	<path id="Layer" class="s1" d="m16.4 20.8q0 0 0.1 0 1.2 0.7 2.4 1.4 0.2 0.1 0.4 0.2 0.2 0.1 0 0.2-1.2 0.7-2.4 1.4-0.2 0.1-0.4 0.3-0.2 0-0.2-0.2 0-1.6 0-3.2 0-0.1 0.1-0.1z"/>
	<path id="Layer" fill-rule="evenodd" class="s2" d="m101.3 21v-6.4h-4.6v6.4zm-10.1 0l2.8-6.4h-5.1l-2.2 6.4zm-5.6 3.5l-0.5-1.5h-4.4l2.9 7h3.7l3.1-7h-4.3zm-1.1-3.5l-2.2-6.4h-5.1l2.7 6.4zm-8.3 0q-0.2-1.5-1-2.8-1-1.8-2.9-2.9-1.9-1-4.3-1-2.4 0-4.3 1-1.8 1.1-2.9 2.9-0.8 1.3-1 2.8h4.8q0.1-0.4 0.3-0.8 0.4-0.9 1.2-1.4 0.9-0.5 1.9-0.5 1.1 0 1.9 0.5 0.8 0.5 1.2 1.4 0.2 0.4 0.3 0.8zm0.1 2h-4.7q-0.1 0.7-0.4 1.4-0.5 0.9-1.3 1.4-0.8 0.5-1.9 0.5-1 0-1.8-0.5-0.9-0.5-1.3-1.4-0.3-0.7-0.4-1.4h-4.8q0.2 1.9 1.1 3.4 1.1 1.8 2.9 2.9 1.9 1 4.3 1 2.4 0 4.3-1 1.9-1.1 3-2.9 0.9-1.5 1-3.4zm20.5 7h4.6v-7h-4.6zm12.4-7l-5 7h5.5l2.6-4.5 2.9 4.5h5.6l-5-7zm6.7-2l4.5-6.4h-5.5l-2.2 4.2-2.9-4.2h-5.5l4.7 6.4zm-15-10.1q0.8-0.7 0.8-1.7 0-1.2-0.7-1.8-0.8-0.6-2.1-0.6-1.2 0-2 0.6-0.8 0.7-0.8 1.8 0 1.1 0.8 1.8 0.7 0.6 2 0.6 1.3 0 2-0.7zm-60.4 19.1v-6.3q0-2.8-0.2-4.9 0-0.5-0.1-0.9l4.6 7.2h1.9l4.8-7.3q-0.1 0.6-0.1 1.2-0.2 2.1-0.2 4.7v6.3h4.8v-20.3h-4.2l-5.9 9.5-5.8-9.5h-4.4v20.3z"/>
</svg>